<svg width="10" height="14" viewBox="0 0 10 14" fill="none" xmlns="http://www.w3.org/2000/svg">
<path fill-rule="evenodd" clip-rule="evenodd" d="M0 0.9C0.98 0.333333 2.12 0 3.33333 0C7.01333 0 10 2.98667 10 6.66667C10 10.3467 7.01333 13.3333 3.33333 13.3333C2.12 13.3333 0.98 13 0 12.4333C1.99333 11.28 3.33333 9.13333 3.33333 6.66667C3.33333 4.2 1.99333 2.05333 0 0.9ZM8.66682 6.66634C8.66682 3.72634 6.27349 1.33301 3.33349 1.33301C3.10682 1.33301 2.88016 1.34634 2.66016 1.37967C3.93349 2.81967 4.66682 4.69967 4.66682 6.66634C4.66682 8.63301 3.93349 10.513 2.66016 11.953C2.88016 11.9863 3.10682 11.9997 3.33349 11.9997C6.27349 11.9997 8.66682 9.60634 8.66682 6.66634Z" fill="white"/>
</svg>
