<svg width="14" height="14" viewBox="0 0 14 14" fill="none" xmlns="http://www.w3.org/2000/svg">
<path fill-rule="evenodd" clip-rule="evenodd" d="M0 7C0 3.13401 3.13401 0 7 0C10.866 0 14 3.13401 14 7C14 10.866 10.866 14 7 14C3.13401 14 0 10.866 0 7ZM9.886 3.03333H4.34733C3.88027 3.03333 3.5 3.409 3.5 3.8745V9.39517C3.5 9.86067 3.88027 10.2363 4.34733 10.2363H9.03453L8.81547 9.48092L9.34453 9.96683L9.84467 10.4242L10.7333 11.2V3.8745C10.7333 3.409 10.3531 3.03333 9.886 3.03333Z" fill="#ffb1df"/>
<path fill-rule="evenodd" clip-rule="evenodd" d="M8.29053 8.36617C8.29053 8.36617 8.14173 8.19058 8.01773 8.03542C8.5592 7.88433 8.76587 7.5495 8.76587 7.5495C8.5964 7.65975 8.4352 7.73733 8.29053 7.79042C8.08387 7.87617 7.88547 7.93333 7.6912 7.966C7.2944 8.0395 6.93067 8.01908 6.62067 7.96192C6.38507 7.917 6.18253 7.85167 6.01307 7.78633C5.918 7.74958 5.81467 7.70467 5.71133 7.6475C5.69893 7.63933 5.68653 7.63525 5.67413 7.62708C5.66587 7.623 5.66173 7.61892 5.6576 7.61483C5.5832 7.574 5.54187 7.54542 5.54187 7.54542C5.54187 7.54542 5.74027 7.87208 6.2652 8.02725C6.1412 8.18242 5.98827 8.36617 5.98827 8.36617C5.0748 8.33758 4.7276 7.7455 4.7276 7.7455C4.7276 6.43067 5.3228 5.36492 5.3228 5.36492C5.918 4.92392 6.48427 4.93617 6.48427 4.93617L6.5256 4.98517C5.7816 5.1975 5.43853 5.52008 5.43853 5.52008C5.43853 5.52008 5.52947 5.47108 5.6824 5.40167C6.12467 5.20975 6.476 5.15667 6.62067 5.14442C6.64547 5.14033 6.66613 5.13625 6.69093 5.13625C6.94307 5.10358 7.22827 5.09542 7.52587 5.12808C7.91853 5.173 8.34013 5.28733 8.77 5.52008C8.77 5.52008 8.44347 5.21383 7.7408 5.0015L7.79867 4.93617C7.79867 4.93617 8.36493 4.92392 8.96013 5.36492C8.96013 5.36492 9.55533 6.43067 9.55533 7.7455C9.55533 7.7455 9.204 8.33758 8.29053 8.36617ZM6.48494 6.53333C6.2512 6.53333 6.06667 6.74354 6.06667 7C6.06667 7.25646 6.2553 7.46667 6.48494 7.46667C6.71869 7.46667 6.90322 7.25646 6.90322 7C6.90732 6.74354 6.71869 6.53333 6.48494 6.53333ZM7.98172 6.53333C7.74798 6.53333 7.56344 6.74354 7.56344 7C7.56344 7.25646 7.75208 7.46667 7.98172 7.46667C8.21547 7.46667 8.4 7.25646 8.4 7C8.4 6.74354 8.21547 6.53333 7.98172 6.53333Z" fill="#ffb1df"/>
</svg>
