<svg width="14" height="14" viewBox="0 0 14 14" fill="none" xmlns="http://www.w3.org/2000/svg">
<path fill-rule="evenodd" clip-rule="evenodd" d="M0 7C0 3.13401 3.13401 0 7 0C10.866 0 14 3.13401 14 7C14 10.866 10.866 14 7 14C3.13401 14 0 10.866 0 7ZM6.79035 5.68969L6.80504 5.9319L6.56022 5.90224C5.66909 5.78855 4.89056 5.40298 4.22956 4.75543L3.9064 4.43412L3.82316 4.67139C3.64689 5.20031 3.75951 5.75889 4.12673 6.13457C4.32259 6.34219 4.27852 6.37185 3.94067 6.24827C3.82316 6.20872 3.72034 6.17906 3.71054 6.19389C3.67627 6.22849 3.79378 6.67832 3.88681 6.85628C4.01412 7.10344 4.27362 7.34565 4.55761 7.489L4.79753 7.6027L4.51355 7.60764C4.23935 7.60764 4.22956 7.61258 4.25893 7.71639C4.35686 8.0377 4.74367 8.37878 5.17455 8.52707L5.47813 8.63088L5.21372 8.78906C4.82202 9.01645 4.36176 9.14497 3.9015 9.15486C3.68117 9.1598 3.5 9.17957 3.5 9.1944C3.5 9.24383 4.09736 9.52065 4.445 9.6294C5.48792 9.95071 6.7267 9.8123 7.65701 9.26361C8.31801 8.8731 8.97902 8.09702 9.28749 7.34565C9.45397 6.94525 9.62044 6.21366 9.62044 5.8627C9.62044 5.63531 9.63513 5.60565 9.90933 5.33378C10.0709 5.1756 10.2227 5.00259 10.2521 4.95315C10.301 4.85923 10.2961 4.85923 10.0464 4.94327C9.63024 5.09156 9.57148 5.07179 9.77713 4.84935C9.92891 4.69117 10.1101 4.40446 10.1101 4.32043C10.1101 4.3056 10.0366 4.33031 9.9534 4.3748C9.86526 4.42423 9.66941 4.49838 9.52252 4.54287L9.25811 4.6269L9.01819 4.46378C8.88599 4.3748 8.69993 4.27594 8.602 4.24628C8.35229 4.17707 7.97037 4.18696 7.74514 4.26605C7.1331 4.48849 6.74628 5.0619 6.79035 5.68969Z" fill="#ffb1df"/>
</svg>
