<svg width="14" height="14" viewBox="0 0 14 14" fill="none" xmlns="http://www.w3.org/2000/svg">
<path fill-rule="evenodd" clip-rule="evenodd" d="M7 14C3.13401 14 0 10.866 0 7C0 3.13401 3.13401 0 7 0C10.866 0 14 3.13401 14 7C14 10.866 10.866 14 7 14ZM3.59659 3.26667L3.04877 4.72757V10.5705H5.05651V11.6667H6.15265L7.2477 10.5705H8.89074L11.0819 8.38009V3.26667H3.59659Z" fill="#F9C5E4"/>
<path fill-rule="evenodd" clip-rule="evenodd" d="M4.32666 3.9967H10.352V8.01417L9.07361 9.29263H7.06556L5.97082 10.3873V9.29263H4.32666V3.9967ZM6.33521 7.64944H7.06556V5.45838H6.33521V7.64944ZM8.34339 7.64944H9.07361V5.45838H8.34339V7.64944Z" fill="#F9C5E4"/>
</svg>
