<svg width="16" height="16" viewBox="0 0 16 16" fill="none" xmlns="http://www.w3.org/2000/svg">
<path fill-rule="evenodd" clip-rule="evenodd" d="M7.08333 0H8.5V4.25H7.08333V0ZM5.78683 4.78834L4.28517 3.28668L3.28642 4.28543L4.78808 5.78709L5.78683 4.78834ZM4.25 7.08333H0V8.5H4.25V7.08333ZM12.2967 4.28543L11.298 3.28668L9.79631 4.78834L10.7951 5.78709L12.2967 4.28543ZM11.3333 7.08333H15.5833V8.5H11.3333V7.08333ZM7.79167 5.66667C6.61583 5.66667 5.66667 6.61583 5.66667 7.79167C5.66667 8.9675 6.61583 9.91667 7.79167 9.91667C8.9675 9.91667 9.91667 8.9675 9.91667 7.79167C9.91667 6.61583 8.9675 5.66667 7.79167 5.66667ZM11.298 12.2967L9.79631 10.795L10.7951 9.79625L12.2967 11.2979L11.298 12.2967ZM3.28642 11.2979L4.28517 12.2967L5.78683 10.795L4.78808 9.79625L3.28642 11.2979ZM8.5 11.3333V15.5833H7.08333V11.3333H8.5Z" fill="white"/>
</svg>
